<svg xmlns="http://www.w3.org/2000/svg" xmlns:xlink="http://www.w3.org/1999/xlink" width="1425.822" height="353.738">
  <defs>
    <linearGradient id="a">
      <stop offset="0" stop-color="#2294fe"/>
      <stop offset="1" stop-color="#014f96"/>
    </linearGradient>
    <linearGradient xlink:href="#a" id="b" gradientUnits="userSpaceOnUse" x1="-467.571" y1="-68.973" x2="-469.875" y2="488.427"/>
  </defs>
  <g font-size="227.364" font-weight="400" fill="#000" font-family="Bitstream Vera Sans">
    <path d="M495.493 179.514v19.095c-5.773-3.183-11.583-5.551-17.43-7.105a64.333 64.333 0 00-17.54-2.443c-13.249 0-23.536 4.219-30.864 12.656-7.327 8.364-10.99 20.131-10.99 35.304 0 15.172 3.663 26.977 10.99 35.414 7.328 8.364 17.615 12.545 30.863 12.545 5.921 0 11.768-.777 17.541-2.33 5.847-1.63 11.657-4.035 17.43-7.217v18.873a83.693 83.693 0 01-17.763 5.995c-6.069 1.332-12.545 1.998-19.428 1.998-18.725 0-33.601-5.884-44.63-17.652-11.027-11.767-16.54-27.643-16.54-47.626 0-20.28 5.55-36.229 16.652-47.849 11.176-11.62 26.459-17.43 45.85-17.43 6.291 0 12.434.667 18.43 1.999a81.648 81.648 0 0117.429 5.773M578.978 189.061c-10.954 0-19.613 4.293-25.978 12.878-6.365 8.512-9.547 20.205-9.547 35.082 0 14.876 3.145 26.607 9.436 35.192 6.365 8.512 15.061 12.767 26.09 12.767 10.879 0 19.501-4.292 25.866-12.878 6.365-8.585 9.548-20.279 9.548-35.081 0-14.729-3.183-26.385-9.548-34.97-6.365-8.66-14.987-12.99-25.867-12.99m0-17.319c17.763 0 31.714 5.773 41.854 17.32 10.14 11.545 15.21 27.532 15.21 47.959 0 20.353-5.07 36.34-15.21 47.96-10.14 11.545-24.091 17.318-41.854 17.318-17.837 0-31.825-5.773-41.964-17.319-10.066-11.62-15.099-27.606-15.099-47.96 0-20.426 5.033-36.413 15.099-47.959 10.14-11.546 24.127-17.319 41.964-17.319M766.598 198.609c5.107-9.178 11.213-15.95 18.318-20.317 7.105-4.366 15.469-6.55 25.09-6.55 12.952 0 22.944 4.552 29.975 13.656 7.03 9.03 10.546 21.907 10.547 38.634v75.048h-20.539v-74.382c0-11.916-2.11-20.76-6.328-26.533s-10.657-8.66-19.317-8.66c-10.584 0-18.947 3.516-25.09 10.547-6.143 7.031-9.214 16.616-9.214 28.753v70.275h-20.538v-74.382c0-11.99-2.11-20.834-6.328-26.533-4.22-5.773-10.732-8.66-19.54-8.66-10.435 0-18.725 3.553-24.868 10.658-6.143 7.031-9.214 16.579-9.214 28.642v70.275h-20.538V174.74h20.538v19.317c4.663-7.623 10.25-13.248 16.764-16.875 6.513-3.626 14.247-5.44 23.202-5.44 9.03 0 16.69 2.295 22.981 6.883 6.365 4.59 11.065 11.25 14.1 19.984M910.7 280.429v65.944H890.16V174.74h20.538v18.873c4.293-7.401 9.696-12.878 16.209-16.43 6.587-3.627 14.432-5.44 23.536-5.44 15.098 0 27.347 5.994 36.747 17.984 9.473 11.99 14.21 27.755 14.21 47.294 0 19.539-4.737 35.303-14.21 47.293-9.4 11.99-21.649 17.985-36.747 17.985-9.104 0-16.95-1.776-23.536-5.329-6.513-3.626-11.916-9.14-16.209-16.541m69.497-43.408c0-15.025-3.108-26.792-9.325-35.304-6.143-8.585-14.618-12.878-25.423-12.878-10.806 0-19.317 4.293-25.534 12.878-6.143 8.512-9.215 20.28-9.215 35.304 0 15.024 3.072 26.83 9.215 35.414 6.217 8.512 14.728 12.767 25.534 12.767 10.805 0 19.28-4.255 25.423-12.767 6.217-8.585 9.325-20.39 9.325-35.414M1091.77 236.577c-16.506 0-27.94 1.887-34.305 5.662-6.365 3.774-9.548 10.213-9.548 19.317 0 7.253 2.369 13.026 7.105 17.318 4.811 4.22 11.324 6.328 19.54 6.328 11.323 0 20.39-3.996 27.199-11.99 6.883-8.067 10.324-18.761 10.324-32.084v-4.551h-20.316m40.744-8.438v70.94h-20.428v-18.872c-4.662 7.549-10.472 13.137-17.43 16.763-6.957 3.553-15.468 5.33-25.533 5.33-12.73 0-22.87-3.553-30.42-10.658-7.474-7.18-11.212-16.764-11.212-28.754 0-13.988 4.663-24.535 13.988-31.64 9.4-7.105 23.388-10.658 41.965-10.658h28.642v-1.998c0-9.4-3.108-16.653-9.325-21.76-6.143-5.18-14.802-7.77-25.978-7.77-7.105 0-14.025.85-20.76 2.553-6.736 1.702-13.212 4.255-19.429 7.66v-18.873c7.476-2.887 14.729-5.033 21.76-6.44 7.03-1.48 13.877-2.22 20.538-2.22 17.985 0 31.418 4.663 40.3 13.989 8.88 9.325 13.322 23.461 13.322 42.408M1278.501 224.032v75.048h-20.427v-74.382c0-11.768-2.295-20.575-6.883-26.422-4.59-5.847-11.472-8.77-20.65-8.77-11.027 0-19.724 3.515-26.089 10.546-6.365 7.031-9.547 16.616-9.547 28.753v70.275h-20.539V174.74h20.539v19.317c4.884-7.475 10.62-13.063 17.207-16.764 6.661-3.7 14.322-5.55 22.981-5.55 14.284 0 25.09 4.44 32.417 13.321 7.327 8.808 10.99 21.797 10.991 38.968M1371.2 310.626c-5.772 14.802-11.397 24.46-16.874 28.975-5.477 4.515-12.804 6.772-21.981 6.772h-16.32v-17.096h11.99c5.625 0 9.992-1.333 13.1-3.997 3.109-2.665 6.55-8.956 10.325-18.873l3.663-9.326-50.29-122.341h21.648l38.856 97.251 38.856-97.251h21.649L1371.2 310.626"/>
  </g>
  <g font-size="102.527" font-weight="400" fill="#000" font-family="Bitstream Vera Sans">
    <path d="M438.032 102.206c0-6.675-1.385-11.848-4.155-15.52-2.737-3.67-6.592-5.506-11.565-5.506-4.94 0-8.794 1.835-11.564 5.506-2.737 3.672-4.105 8.845-4.105 15.52 0 6.641 1.368 11.797 4.105 15.469 2.77 3.67 6.625 5.506 11.564 5.506 4.973 0 8.828-1.835 11.565-5.506 2.77-3.672 4.155-8.828 4.155-15.47m9.211 21.727c0 9.546-2.12 16.638-6.358 21.277-4.238 4.672-10.73 7.008-19.474 7.008-3.237 0-6.29-.25-9.161-.75a44.688 44.688 0 01-8.36-2.203v-8.961c2.703 1.468 5.373 2.553 8.01 3.254 2.636.7 5.323 1.051 8.06 1.051 6.04 0 10.562-1.585 13.566-4.756 3.004-3.137 4.506-7.893 4.506-14.268v-4.555c-1.903 3.304-4.339 5.774-7.31 7.409-2.97 1.635-6.524 2.453-10.662 2.453-6.876 0-12.416-2.62-16.621-7.86-4.205-5.24-6.308-12.181-6.308-20.825 0-8.678 2.103-15.636 6.308-20.876 4.205-5.24 9.745-7.86 16.62-7.86 4.139 0 7.693.818 10.664 2.453 2.97 1.635 5.406 4.105 7.309 7.41v-8.511h9.211v49.11M514.176 100.553v4.506h-42.352c.4 6.341 2.302 11.18 5.707 14.518 3.437 3.304 8.21 4.956 14.317 4.956 3.538 0 6.959-.434 10.263-1.301 3.337-.868 6.642-2.17 9.912-3.905v8.71a55.24 55.24 0 01-10.162 3.204 50.9 50.9 0 01-10.563 1.102c-8.945 0-16.037-2.603-21.277-7.81-5.206-5.206-7.81-12.248-7.81-21.126 0-9.178 2.47-16.454 7.41-21.827 4.973-5.407 11.664-8.11 20.075-8.11 7.542 0 13.5 2.436 17.872 7.309 4.405 4.84 6.608 11.43 6.608 19.774m-9.211-2.703c-.067-5.04-1.486-9.061-4.256-12.065-2.736-3.003-6.374-4.505-10.913-4.505-5.14 0-9.262 1.452-12.365 4.355-3.071 2.904-4.84 6.992-5.307 12.265l32.84-.05M575.702 97.05v33.841h-9.211V97.35c0-5.307-1.035-9.279-3.104-11.915-2.07-2.637-5.173-3.955-9.312-3.955-4.973 0-8.894 1.585-11.764 4.756-2.87 3.17-4.306 7.492-4.306 12.966v31.689h-9.261v-56.07h9.261v8.711c2.203-3.37 4.79-5.89 7.76-7.559 3.004-1.669 6.458-2.503 10.363-2.503 6.441 0 11.314 2.003 14.618 6.007 3.304 3.972 4.956 9.83 4.956 17.572M642.134 100.553v4.506h-42.352c.4 6.341 2.303 11.18 5.707 14.518 3.437 3.304 8.21 4.956 14.318 4.956 3.537 0 6.958-.434 10.262-1.301 3.338-.868 6.642-2.17 9.913-3.905v8.71a55.24 55.24 0 01-10.163 3.204 50.9 50.9 0 01-10.563 1.102c-8.945 0-16.037-2.603-21.276-7.81-5.207-5.206-7.81-12.248-7.81-21.126 0-9.178 2.47-16.454 7.41-21.827 4.972-5.407 11.663-8.11 20.074-8.11 7.543 0 13.5 2.436 17.872 7.309 4.405 4.84 6.608 11.43 6.608 19.774m-9.211-2.703c-.067-5.04-1.485-9.061-4.255-12.065-2.737-3.003-6.375-4.505-10.914-4.505-5.14 0-9.261 1.452-12.365 4.355-3.07 2.904-4.84 6.992-5.307 12.265l32.84-.05M689.543 83.432a11.626 11.626 0 00-3.404-1.301c-1.202-.3-2.537-.45-4.005-.45-5.207 0-9.212 1.701-12.015 5.105-2.77 3.371-4.155 8.227-4.155 14.568v29.537h-9.262v-56.07h9.262v8.711c1.935-3.404 4.455-5.923 7.559-7.559 3.104-1.669 6.875-2.503 11.314-2.503.634 0 1.335.05 2.103.15.767.067 1.618.184 2.553.35l.05 9.462M699.305 74.822h9.211v56.069h-9.211v-56.07m0-21.826h9.211v11.664h-9.211V52.995M768.09 76.974v8.611c-2.603-1.435-5.223-2.503-7.86-3.204a29.01 29.01 0 00-7.91-1.101c-5.974 0-10.613 1.902-13.917 5.707-3.304 3.771-4.956 9.078-4.956 15.92 0 6.841 1.652 12.164 4.956 15.97 3.304 3.77 7.943 5.656 13.917 5.656 2.67 0 5.307-.35 7.91-1.051 2.637-.734 5.257-1.82 7.86-3.254v8.51a37.74 37.74 0 01-8.01 2.704c-2.737.6-5.657.9-8.76.9-8.445 0-15.153-2.652-20.126-7.959-4.972-5.307-7.459-12.465-7.459-21.477 0-9.144 2.503-16.336 7.51-21.576 5.039-5.24 11.93-7.86 20.675-7.86 2.837 0 5.607.3 8.31.901a36.818 36.818 0 017.86 2.603M816.65 52.995h9.211v77.896h-9.211V52.995M866.812 81.28c-4.94 0-8.844 1.935-11.714 5.807-2.87 3.838-4.306 9.111-4.306 15.82 0 6.708 1.419 11.998 4.256 15.869 2.87 3.838 6.791 5.757 11.764 5.757 4.906 0 8.794-1.936 11.664-5.807 2.87-3.871 4.306-9.145 4.306-15.82 0-6.641-1.435-11.898-4.306-15.77-2.87-3.904-6.758-5.856-11.664-5.856m0-7.81c8.01 0 14.301 2.603 18.873 7.81 4.573 5.206 6.859 12.415 6.859 21.626 0 9.178-2.286 16.387-6.859 21.627-4.572 5.207-10.863 7.81-18.873 7.81-8.043 0-14.351-2.603-18.923-7.81-4.54-5.24-6.809-12.449-6.809-21.627 0-9.21 2.27-16.42 6.809-21.626 4.572-5.207 10.88-7.81 18.923-7.81M944.658 102.206c0-6.675-1.385-11.848-4.155-15.52-2.737-3.67-6.591-5.506-11.564-5.506-4.94 0-8.794 1.835-11.564 5.506-2.737 3.672-4.106 8.845-4.105 15.52 0 6.641 1.368 11.797 4.105 15.469 2.77 3.67 6.624 5.506 11.564 5.506 4.973 0 8.827-1.835 11.564-5.506 2.77-3.672 4.155-8.828 4.155-15.47m9.212 21.727c0 9.546-2.12 16.638-6.358 21.277-4.239 4.672-10.73 7.008-19.474 7.008-3.238 0-6.291-.25-9.162-.75a44.688 44.688 0 01-8.36-2.203v-8.961c2.703 1.468 5.373 2.553 8.01 3.254 2.637.7 5.323 1.051 8.06 1.051 6.04 0 10.563-1.585 13.567-4.756 3.003-3.137 4.505-7.893 4.505-14.268v-4.555c-1.902 3.304-4.338 5.774-7.309 7.409-2.97 1.635-6.524 2.453-10.663 2.453-6.875 0-12.415-2.62-16.62-7.86-4.206-5.24-6.308-12.181-6.308-20.825 0-8.678 2.102-15.636 6.308-20.876 4.205-5.24 9.745-7.86 16.62-7.86 4.139 0 7.693.818 10.663 2.453 2.97 1.635 5.407 4.105 7.31 7.41v-8.511h9.21v49.11M994.57 81.28c-4.94 0-8.844 1.935-11.714 5.807-2.87 3.838-4.306 9.111-4.306 15.82 0 6.708 1.419 11.998 4.256 15.869 2.87 3.838 6.791 5.757 11.764 5.757 4.906 0 8.794-1.936 11.665-5.807 2.87-3.871 4.305-9.145 4.305-15.82 0-6.641-1.435-11.898-4.305-15.77-2.87-3.904-6.759-5.856-11.665-5.856m0-7.81c8.01 0 14.301 2.603 18.873 7.81 4.573 5.206 6.859 12.415 6.859 21.626 0 9.178-2.286 16.387-6.859 21.627-4.572 5.207-10.863 7.81-18.873 7.81-8.043 0-14.351-2.603-18.923-7.81-4.54-5.24-6.809-12.449-6.809-21.627 0-9.21 2.27-16.42 6.809-21.626 4.572-5.207 10.88-7.81 18.923-7.81"/>
  </g>
  <path d="M-184.265 202.817c0 157.738-127.872 285.61-285.61 285.61s-285.61-127.872-285.61-285.61 127.872-285.61 285.61-285.61 285.61 127.872 285.61 285.61z" transform="scale(.61927) rotate(-45 7.807 -667.737)" fill="url(#b)"/>
  <path d="M302.81 150.513c42.056 42.056 42.056 110.241 0 152.297s-110.241 42.056-152.297 0-42.056-110.241 0-152.297 110.241-42.056 152.297 0z" fill="#eee"/>
</svg>
